<svg width="25" height="25" viewBox="0 0 25 25" fill="none" xmlns="http://www.w3.org/2000/svg">
<g clip-path="url(#clip0_1068_299)">
<path d="M19.7583 15.4866C19.2464 14.9537 18.6291 14.6688 17.9748 14.6688C17.3258 14.6688 16.7032 14.9484 16.1703 15.4813L14.5029 17.1434C14.3657 17.0695 14.2286 17.0009 14.0967 16.9323C13.9067 16.8374 13.7273 16.7477 13.5743 16.6527C12.0125 15.6607 10.5931 14.368 9.23179 12.6954C8.57224 11.8617 8.12902 11.1599 7.80716 10.4476C8.23982 10.0519 8.64083 9.64033 9.03129 9.2446C9.17903 9.09686 9.32677 8.94384 9.47451 8.7961C10.5826 7.68805 10.5826 6.25286 9.47451 5.14482L8.03404 3.70435C7.87047 3.54078 7.70163 3.37194 7.54334 3.20309C7.22675 2.87596 6.89434 2.53826 6.55137 2.22168C6.03956 1.71514 5.42749 1.44604 4.78377 1.44604C4.14005 1.44604 3.51743 1.71514 2.98979 2.22168C2.98451 2.22696 2.98451 2.22696 2.97923 2.23223L1.18525 4.04204C0.509868 4.71743 0.124689 5.54055 0.0402664 6.49558C-0.0863677 8.0363 0.367404 9.47148 0.715648 10.4107C1.57043 12.7165 2.84732 14.8534 4.75211 17.1434C7.06318 19.903 9.84386 22.0821 13.0203 23.6176C14.2338 24.1927 15.8537 24.8734 17.6635 24.9894C17.7743 24.9947 17.8904 25 17.9959 25C19.2148 25 20.2384 24.562 21.0404 23.6914C21.0457 23.6809 21.0562 23.6756 21.0615 23.6651C21.3359 23.3326 21.6525 23.0319 21.9849 22.71C22.2118 22.4937 22.4439 22.2668 22.6708 22.0294C23.1932 21.4859 23.4676 20.8527 23.4676 20.2037C23.4676 19.5494 23.1879 18.9216 22.655 18.3939L19.7583 15.4866ZM21.6472 21.0427C21.6419 21.0427 21.6419 21.048 21.6472 21.0427C21.4414 21.2643 21.2304 21.4648 21.0035 21.6864C20.6605 22.0135 20.3123 22.3565 19.9851 22.7417C19.4522 23.3115 18.8243 23.5806 18.0012 23.5806C17.9221 23.5806 17.8376 23.5806 17.7585 23.5754C16.1914 23.4751 14.7351 22.863 13.6429 22.3407C10.6564 20.8949 8.03404 18.8424 5.85488 16.2411C4.05562 14.0725 2.8526 12.0675 2.05586 9.9147C1.56515 8.60087 1.38575 7.57725 1.4649 6.61166C1.51766 5.99432 1.7551 5.48251 2.19305 5.04456L3.99231 3.2453C4.25085 3.00259 4.52522 2.87068 4.79432 2.87068C5.12674 2.87068 5.39583 3.07118 5.56468 3.24003C5.56996 3.2453 5.57523 3.25058 5.58051 3.25586C5.90237 3.55661 6.2084 3.86792 6.53026 4.20034C6.69383 4.36918 6.86268 4.53803 7.03152 4.71215L8.47199 6.15261C9.03129 6.71191 9.03129 7.229 8.47199 7.7883C8.31897 7.94132 8.17123 8.09434 8.01821 8.24207C7.575 8.69585 7.15288 9.11796 6.69383 9.52952C6.68328 9.54008 6.67273 9.54535 6.66745 9.5559C6.21368 10.0097 6.2981 10.4529 6.39308 10.7537C6.39835 10.7695 6.40363 10.7853 6.40891 10.8011C6.78353 11.7087 7.31117 12.5635 8.11319 13.5818L8.11847 13.5871C9.57476 15.3811 11.1102 16.7793 12.8039 17.8504C13.0203 17.9876 13.2419 18.0984 13.4529 18.204C13.6429 18.2989 13.8223 18.3886 13.9753 18.4836C13.9964 18.4942 14.0175 18.51 14.0386 18.5205C14.218 18.6102 14.3869 18.6525 14.561 18.6525C14.9989 18.6525 15.2733 18.3781 15.363 18.2884L17.1675 16.4838C17.3469 16.3044 17.6319 16.0881 17.9643 16.0881C18.2914 16.0881 18.5605 16.2939 18.7241 16.4733C18.7293 16.4786 18.7293 16.4786 18.7346 16.4838L21.6419 19.3912C22.1854 19.9293 22.1854 20.4834 21.6472 21.0427Z" fill="white"/>
<path d="M13.5111 5.94682C14.8936 6.17898 16.1493 6.83326 17.1519 7.83578C18.1544 8.8383 18.8034 10.0941 19.0408 11.4765C19.0989 11.8247 19.3996 12.0675 19.7426 12.0675C19.7848 12.0675 19.8217 12.0622 19.8639 12.0569C20.2544 11.9936 20.5129 11.6242 20.4496 11.2338C20.1647 9.56117 19.3732 8.03628 18.1649 6.82798C16.9566 5.61968 15.4318 4.82822 13.7591 4.54329C13.3687 4.47997 13.0046 4.73852 12.936 5.1237C12.8674 5.50887 13.1207 5.8835 13.5111 5.94682Z" fill="white"/>
<path d="M24.9715 11.028C24.5019 8.27374 23.2039 5.76744 21.2094 3.77295C19.2149 1.77846 16.7086 0.480461 13.9543 0.0108597C13.5692 -0.0577338 13.2051 0.206087 13.1365 0.591266C13.0732 0.981721 13.3317 1.34579 13.7222 1.41439C16.181 1.83122 18.4235 2.99731 20.2069 4.77547C21.9903 6.5589 23.1511 8.80138 23.568 11.2602C23.626 11.6084 23.9268 11.8511 24.2697 11.8511C24.3119 11.8511 24.3489 11.8459 24.3911 11.8406C24.7763 11.7826 25.0401 11.4132 24.9715 11.028Z" fill="white"/>
</g>
<defs>
<clipPath id="clip0_1068_299">
<rect width="25" height="25" fill="white"/>
</clipPath>
</defs>
</svg>
